<svg xmlns="http://www.w3.org/2000/svg" viewBox="-120 -120 240 240" role="img" aria-labelledby="title">
  <title>Claude logo</title>
  <g fill="#D97A57">
    <rect x="-12" y="-108" width="24" height="138" rx="12" transform="rotate(0)" />
    <rect x="-14" y="-112" width="28" height="142" rx="14" transform="rotate(30)" />
    <rect x="-11" y="-102" width="22" height="132" rx="11" transform="rotate(58)" />
    <rect x="-9" y="-98" width="18" height="128" rx="9" transform="rotate(88)" />
    <rect x="-13" y="-108" width="26" height="138" rx="13" transform="rotate(118)" />
    <rect x="-10" y="-96" width="20" height="126" rx="10" transform="rotate(148)" />
    <rect x="-15" y="-114" width="30" height="144" rx="15" transform="rotate(178)" />
    <rect x="-11" y="-98" width="22" height="128" rx="11" transform="rotate(210)" />
    <rect x="-14" y="-110" width="28" height="140" rx="14" transform="rotate(238)" />
    <rect x="-10" y="-100" width="20" height="130" rx="10" transform="rotate(268)" />
    <rect x="-12" y="-104" width="24" height="134" rx="12" transform="rotate(298)" />
    <rect x="-9" y="-96" width="18" height="126" rx="9" transform="rotate(328)" />
    <circle cx="0" cy="0" r="22" />
  </g>
</svg>
